# xmcd
#
# Track frame offsets: 
#        183
#        14445
#        32950
#        46510
#        62760
#        74753
#        91043
#        109250
#        121150
#        140203
#        149115
#        167620
#        186878
#        205925
#        213213
#        230013
#        240353
#        257795
#
# Disc length: 3690 seconds
#
# Revision: 2
# Processed by: cddbd v1.5.2PL0 Copyright (c) Steve Scherf et al.
# Submitted via: ExactAudioCopy v1.3
#
DISCID=0c0e6812
DTITLE=Phil Kelsall - Blue velvet
DYEAR=1991
DGENRE=Instrumental
TTITLE0=Delicado
TTITLE1=I dreamed a dream
TTITLE2=Doll dance
TTITLE3=Drigo's serenade
TTITLE4=Chihuahua
TTITLE5=The wind beneath my wings
TTITLE6=Easy winners
TTITLE7=The bluebell polka
TTITLE8=Voices of spring
TTITLE9=The flea market
TTITLE10=Music from across the way (So eine Liebe gibt es einmal nur)
TTITLE11=In the shadows
TTITLE12=Méditation from Thaïs
TTITLE13=Tambourin
TTITLE14=Blue velvet
TTITLE15=Barcarolle from The Tales of Hoffman
TTITLE16=I'm getting sentimental over you - I don't want to walk witho
TTITLE16=ut you - Goodnight sweetheart
TTITLE17=Waltz from Masquerade
EXTD=
EXTT0=
EXTT1=
EXTT2=
EXTT3=
EXTT4=
EXTT5=
EXTT6=
EXTT7=
EXTT8=
EXTT9=
EXTT10=
EXTT11=
EXTT12=
EXTT13=
EXTT14=
EXTT15=
EXTT16=
EXTT17=
PLAYORDER=
